<svg xmlns="http://www.w3.org/2000/svg" viewBox="0 0 331.02 328.8"><defs><style>.cls-1{fill:#5cdb95;}</style></defs><g id="Layer_2" data-name="Layer 2"><g id="Layer_7" data-name="Layer 7"><path class="cls-1" d="M224.62,56.3c.19,22.31-14.14,43.73-34.87,52-36.92,15.24-77.74-12.07-77.67-52s40.75-67.26,77.67-52c20.72,8.28,35.06,29.7,34.87,52Zm-12.84,0a43.83,43.83,0,0,0-26.86-40.37c-28.73-12-60.55,9.26-60.61,40.37s31.88,52.34,60.61,40.37A43.85,43.85,0,0,0,211.78,56.3Z"/></g><g id="Layer_4" data-name="Layer 4"><path class="cls-1" d="M326.62,81.8a40,40,0,0,1-24.69,36.77c-26,10.77-55-8.58-54.85-36.77C247,53.61,275.89,34.26,301.93,45A40,40,0,0,1,326.62,81.8Zm-12.84,0c0-24.15-29.22-36.28-46.39-19.31-10.67,10.26-10.68,28.36,0,38.62,17.17,17,46.39,4.84,46.39-19.31Z"/><path class="cls-1" d="M83.62,81.8a40,40,0,0,1-24.69,36.77C32.89,129.34,4,110,4.08,81.8,4,53.61,32.89,34.26,58.93,45A40,40,0,0,1,83.62,81.8Zm-12.84,0c0-24.15-29.22-36.28-46.39-19.31-10.67,10.26-10.68,28.36,0,38.62,17.17,17,46.39,4.84,46.39-19.31Z"/></g><g id="Layer_5" data-name="Layer 5"><path class="cls-1" d="M214.7,328.8h15.48v-154s.52-16.63-15.48-32.8-33-15.18-33-15.18H146.34s-14.64,1-30.64,16-15,38-15,38l0,98s0,16,16,31c9.34,8.76,21,15,38,15v-15s-17.78-2.78-27-12c-6-6-9-20-9-20l-3-98s0-17,13-28,22-10,22-10h29s15,1,23,11,11.82,13.07,11.91,23.53S214.7,328.8,214.7,328.8Z"/><path class="cls-1" d="M76.33,267.91H86.7V164.8s.34-11.14-10.37-22-22.09-10.16-22.09-10.16H30.57s-9.81.67-20.52,10.72S0,168.83,0,168.83v65.63s0,10.69,10.72,20.73a35.21,35.21,0,0,0,25.44,10v-10s-11.9-1.86-18.08-8c-4-4-6-13.39-6-13.39l-2-65.61s0-11.38,8.7-18.75,14.73-6.69,14.73-6.69H52.9s10,.67,15.4,7.36,7.91,8.75,8,15.76S76.33,267.91,76.33,267.91Z"/><path class="cls-1" d="M254.69,268.13H244.32V165s-.34-11.13,10.37-22,22.09-10.16,22.09-10.16h23.67s9.81.67,20.52,10.72,10,25.44,10,25.44v65.63s0,10.69-10.72,20.73a35.21,35.21,0,0,1-25.44,10v-10s11.9-1.86,18.08-8c4-4,6-13.39,6-13.39l2-65.61s0-11.38-8.7-18.75-14.73-6.69-14.73-6.69H278.12s-10,.67-15.4,7.36-7.91,8.75-8,15.76S254.69,268.13,254.69,268.13Z"/></g></g></svg>